<svg xmlns="http://www.w3.org/2000/svg" width="128" height="128.005" viewBox="0 0 128 128.005">
  <g id="goal" transform="translate(-0.01)">
    <path id="Path_7" data-name="Path 7" d="M127.346,121.87l-29.265-43.9a3.946,3.946,0,0,0-6.566,0l-3.827,5.741L70.027,57.222V32.743H82.844s0,10.748.007,10.839a6.068,6.068,0,0,0,6.127,5.728h25.307a3.946,3.946,0,0,0,3.426-5.9l-5.926-10.371a.2.2,0,0,1,0-.194l5.926-10.37a3.946,3.946,0,0,0-3.426-5.9H94.878V10.159a6.023,6.023,0,0,0-6.017-6.017H70.027v-.2A3.951,3.951,0,0,0,66.081,0H61.939a3.951,3.951,0,0,0-3.946,3.946v7a1.875,1.875,0,1,0,3.75,0v-7a.2.2,0,0,1,.2-.2h4.142a.2.2,0,0,1,.2.2V52.08a3.949,3.949,0,0,0-4.533,0V18.443a1.875,1.875,0,1,0-3.75,0V57.222L40.332,83.713,36.5,77.973a3.946,3.946,0,0,0-6.566,0L.674,121.87A3.946,3.946,0,0,0,3.957,128H27.125a1.875,1.875,0,1,0,0-3.75H17.812l26.773-40.16,10.943-5.471,7.357,5.517a1.875,1.875,0,0,0,2.25,0l7.357-5.517L83.435,84.1l26.773,40.16H34.7a1.875,1.875,0,1,0,0,3.75h89.367a3.946,3.946,0,0,0,3.283-6.135ZM88.861,32.743a2.267,2.267,0,1,1,0,4.533,6.013,6.013,0,0,0-2.267.448V32.743Zm25.424-12.425a.2.2,0,0,1,.17.293l-5.926,10.37a3.96,3.96,0,0,0,0,3.915l5.926,10.37a.2.2,0,0,1-.17.293H88.978A2.353,2.353,0,0,1,86.6,43.405a2.268,2.268,0,0,1,2.264-2.379,6.023,6.023,0,0,0,6.017-6.017V20.318ZM88.861,7.892a2.269,2.269,0,0,1,2.267,2.267V29.437a5.984,5.984,0,0,0-2.267-.445H70.027V7.892ZM3.957,124.255a.2.2,0,0,1-.163-.3l29.265-43.9a.2.2,0,0,1,.326,0l4.694,7.041L13.3,124.255Zm69.175-49.5a1.875,1.875,0,0,0-1.964.177L64.01,80.3l-7.159-5.369a1.875,1.875,0,0,0-1.964-.177l-6.11,3.055L63.847,55.2a.2.2,0,0,1,.326,0l15.069,22.6Zm51.1,49.4a.175.175,0,0,1-.173.1h-9.348L89.941,87.094l4.694-7.041a.2.2,0,0,1,.326,0l29.265,43.9a.176.176,0,0,1,.01.2Z" transform="translate(0)" fill="#e86d1f"/>
  </g>
</svg>
