<svg xmlns="http://www.w3.org/2000/svg" width="128.005" height="128.005" viewBox="0 0 128.005 128.005">
  <g id="leadership" transform="translate(0 0)">
    <g id="Group_38" data-name="Group 38" transform="translate(0.001 0.001)">
      <g id="Group_37" data-name="Group 37">
        <path id="Path_20" data-name="Path 20" d="M32,4.27a12.4,12.4,0,0,0-3.2.427A17.052,17.052,0,0,0,0,17.07,2.131,2.131,0,0,0,2.135,19.2H42.67A2.131,2.131,0,0,0,44.8,17.07,12.813,12.813,0,0,0,32,4.27ZM4.446,14.939v0A12.787,12.787,0,0,1,26.608,8.556a2.133,2.133,0,0,0,2.353.572,8.5,8.5,0,0,1,11.307,5.811H4.446Z" transform="translate(-0.002 -0.003)" fill="#e86d1f"/>
      </g>
    </g>
    <g id="Group_40" data-name="Group 40" transform="translate(32.361 23.731)">
      <g id="Group_39" data-name="Group 39" transform="translate(0 0)">
        <rect id="Rectangle_9" data-name="Rectangle 9" width="4" height="4" transform="translate(-0.356 0.269)" fill="#e86d1f"/>
      </g>
    </g>
    <g id="Group_42" data-name="Group 42" transform="translate(40.271 23.731)">
      <g id="Group_41" data-name="Group 41" transform="translate(0 0)">
        <rect id="Rectangle_10" data-name="Rectangle 10" width="5" height="4" transform="translate(-0.266 0.269)" fill="#e86d1f"/>
      </g>
    </g>
    <g id="Group_44" data-name="Group 44" transform="translate(48.901 23.731)">
      <g id="Group_43" data-name="Group 43" transform="translate(0 0)">
        <rect id="Rectangle_11" data-name="Rectangle 11" width="4" height="4" transform="translate(0.104 0.269)" fill="#e86d1f"/>
      </g>
    </g>
    <g id="Group_46" data-name="Group 46" transform="translate(0 0)">
      <g id="Group_45" data-name="Group 45" transform="translate(0 0)">
        <path id="Path_21" data-name="Path 21" d="M100.27,63.35a6.377,6.377,0,0,0-5.348-6.313L87.86,55.86l1.357-6.791h17.453v12.8h4.267V20.52l15.887-7.945a2.133,2.133,0,0,0,0-3.817L109.758.225a2.133,2.133,0,0,0-3.087,1.909V36.269H90.585a12.8,12.8,0,1,0-17.94,1.08L54.266,53.686,42.334,59.651l-6.119-1.02A12.8,12.8,0,1,0,19.44,58.8a1.9,1.9,0,0,0-.1.169l-6.614,17.2a10.593,10.593,0,0,0,.9,9.466,10.852,10.852,0,0,0,1.152,1.506L8.974,96.815.626,105.163a2.131,2.131,0,0,0,0,3.017l6.4,6.4a2.132,2.132,0,0,0,3.017,0l10.667-10.667a2.133,2.133,0,0,0,.267-.324L29.171,91.3,32,91.552v8.719H29.868a2.131,2.131,0,0,0-2.133,2.133v15.369L1.654,123.792A2.134,2.134,0,0,0,0,125.872v2.133H4.267v-.435l26.081-6.018A2.134,2.134,0,0,0,32,119.472V104.538H64a2.129,2.129,0,0,0,1.585-.706L84.153,83.2H128V78.937H100.27ZM110.937,5.586,121.1,10.668,110.937,15.75Zm-38.4,22.149a8.534,8.534,0,1,1,8.534,8.534A8.542,8.542,0,0,1,72.536,27.735ZM69.528,45.826l-3.245,8.435-6.027,4.544L58.272,55.83ZM19.2,49.069A8.534,8.534,0,1,1,27.735,57.6,8.542,8.542,0,0,1,19.2,49.069Zm-1.658,51.976-9.009,9.009-3.384-3.384,7.025-7.025a2.119,2.119,0,0,0,.32-.41l5.728-9.547a10.734,10.734,0,0,0,3.495.93l2.616.237Zm25.125-.774h-6.4V89.6a2.134,2.134,0,0,0-1.939-2.125L22.107,86.368a6.4,6.4,0,0,1-5.393-8.67L22.8,61.87h6.891l12.628,2.1a2.145,2.145,0,0,0,1.3-.2l11.115-5.558,1.954,2.931L44.235,68.27h-10.1a2.133,2.133,0,0,0-2.069,1.617l-2.133,8.534a2.133,2.133,0,0,0,1.72,2.62l9.236,1.54a2.126,2.126,0,0,1,1.781,2.1v15.587ZM85.337,78.937H83.2a2.129,2.129,0,0,0-1.585.706L63.053,100.271H46.935V84.684a6.377,6.377,0,0,0-5.348-6.313L34.63,77.211,35.8,72.537h9a2.14,2.14,0,0,0,1.058-.282l14.934-8.534c.032-.019.051-.053.083-.073s.1-.043.143-.075l4.457-3.36A10.679,10.679,0,0,0,66.964,64.3,10.853,10.853,0,0,0,68.116,65.8l-5.807,9.679-8.348,8.348a2.131,2.131,0,0,0,0,3.017l6.4,6.4a2.132,2.132,0,0,0,3.017,0L74.045,82.579a2.133,2.133,0,0,0,.267-.324l8.194-12.293,2.831.256ZM71.559,68.355a10.734,10.734,0,0,0,3.495.93l2.616.237L70.876,79.711l-9.007,9.009-3.384-3.384,7.025-7.025a2.119,2.119,0,0,0,.32-.41ZM96,78.937H89.6V68.27a2.134,2.134,0,0,0-1.939-2.125L75.442,65.033a6.4,6.4,0,0,1-5.393-8.67l6.087-15.828h30.535V44.8H87.47a2.132,2.132,0,0,0-2.091,1.715L83.246,57.185a2.131,2.131,0,0,0,1.741,2.524l9.236,1.54A2.122,2.122,0,0,1,96,63.35Z" transform="translate(0 0)" fill="#e86d1f"/>
      </g>
    </g>
  </g>
</svg>
