<svg xmlns="http://www.w3.org/2000/svg" width="124.097" height="128.005" viewBox="0 0 124.097 128.005">
  <g id="idea_1_" data-name="idea (1)" transform="translate(-7.815)">
    <g id="Group_14" data-name="Group 14" transform="translate(107.168 48.155)">
      <g id="Group_13" data-name="Group 13">
        <path id="Path_8" data-name="Path 8" d="M409.482,193.347a2.5,2.5,0,1,0-3.536,3.536c.038.038.079.078.117.114a2.5,2.5,0,0,0,3.419-3.65Z" transform="translate(-405.214 -192.615)" fill="#e86d1f"/>
      </g>
    </g>
    <g id="Group_16" data-name="Group 16" transform="translate(74.805 38.309)">
      <g id="Group_15" data-name="Group 15">
        <path id="Path_9" data-name="Path 9" d="M307.316,159.7a39.141,39.141,0,0,0-4.367-2.577,33.53,33.53,0,0,0-25.426-2.424,2.5,2.5,0,0,0,1.483,4.775,28.622,28.622,0,0,1,21.7,2.115,34.813,34.813,0,0,1,3.807,2.248,2.5,2.5,0,1,0,2.808-4.137Z" transform="translate(-275.764 -153.23)" fill="#e86d1f"/>
      </g>
    </g>
    <g id="Group_18" data-name="Group 18" transform="translate(23.779 15.865)">
      <g id="Group_17" data-name="Group 17" transform="translate(0)">
        <path id="Path_10" data-name="Path 10" d="M176.991,124.728c-1.025-2.15-2.722-5.711-2.753-6.888,2.924-7.206,1.857-15.181-3.013-22.475C163.737,84.145,148.389,76,134.732,76a44.738,44.738,0,0,0-20.611,5.008A21.4,21.4,0,1,0,81.9,103.123a4.178,4.178,0,0,1,2.414,3.714v14.63a5.068,5.068,0,0,0,5.061,5.063h.85a44.526,44.526,0,0,0,15.078,28.193c.079.247.311,1.4-.683,4.859-.774,2.691-1.961,5.68-3.009,8.318-.7,1.765-1.307,3.289-1.673,4.442a2.5,2.5,0,0,0,2.383,3.257h35.687c1.173,0,2.783-.525,3.8-3.026a24.439,24.439,0,0,0,1.035-3.785c.3-1.351.994-4.515,1.686-4.9a.508.508,0,0,1,.139.008,2.455,2.455,0,0,0,.388.03c3.737,0,6.791.169,9.486.319,7.9.439,12.673.7,16.857-5.324,2.128-3.066,1.887-7.536,1.632-12.27a44.653,44.653,0,0,1-.026-7.051,21.814,21.814,0,0,1,2.214-1.65c2.357-1.619,4.583-3.147,4.583-5.471C179.8,130.714,178.734,128.384,176.991,124.728ZM84.516,98.859a16.4,16.4,0,1,1,17.111,0,9.1,9.1,0,0,0-4.382,5.356H88.9A9.1,9.1,0,0,0,84.516,98.859Zm12.309,10.357v3.656H89.318v-3.656Zm-7.446,12.312a.072.072,0,0,1-.061-.062v-3.593h7.507v3.593a.072.072,0,0,1-.062.062Zm83.01,12.3c-2.152,1.478-4.01,2.754-4.284,4.685a44.507,44.507,0,0,0-.066,8.407c.19,3.512.4,7.492-.746,9.149-2.488,3.584-4.639,3.618-12.473,3.183-2.585-.143-5.792-.321-9.594-.327-1.46-.172-3.931.1-5.58,3.307a23.229,23.229,0,0,0-1.685,5.477,26.568,26.568,0,0,1-.742,2.886H105.924l.339-.853c3.6-9.069,5.883-15.72,2.411-18.721a39.565,39.565,0,0,1-13.4-24.494h1.488a5.068,5.068,0,0,0,5.062-5.063V106.841a4.18,4.18,0,0,1,2.414-3.719,21.256,21.256,0,0,0,10.166-16.55A39.722,39.722,0,0,1,134.732,81c11.912,0,25.814,7.368,32.335,17.137,2.8,4.187,5.495,10.7,2.483,17.954-.981,2.362.474,5.637,2.928,10.786a45.117,45.117,0,0,1,2.249,5.206A23.624,23.624,0,0,1,172.389,133.829Z" transform="translate(-71.668 -63.458)" fill="#e86d1f"/>
      </g>
    </g>
    <g id="Group_20" data-name="Group 20" transform="translate(48.491 27.118)">
      <g id="Group_19" data-name="Group 19">
        <path id="Path_11" data-name="Path 11" d="M179.468,115.087a10.009,10.009,0,0,0-5.308-6.339,2.5,2.5,0,0,0-2.292,4.444,5.012,5.012,0,0,1,2.772,3.2,7.58,7.58,0,0,1-.694,5.166,2.5,2.5,0,1,0,4.216,2.688A12.532,12.532,0,0,0,179.468,115.087Z" transform="translate(-170.514 -108.47)" fill="#e86d1f"/>
      </g>
    </g>
    <g id="Group_22" data-name="Group 22" transform="translate(42.682)">
      <g id="Group_21" data-name="Group 21">
        <path id="Path_12" data-name="Path 12" d="M149.779,0a2.5,2.5,0,0,0-2.5,2.5V9.627a2.5,2.5,0,0,0,5,0V2.5A2.5,2.5,0,0,0,149.779,0Z" transform="translate(-147.279)" fill="#e86d1f"/>
      </g>
    </g>
    <g id="Group_24" data-name="Group 24" transform="translate(7.815 34.867)">
      <g id="Group_23" data-name="Group 23">
        <path id="Path_13" data-name="Path 13" d="M17.442,139.465H10.315a2.5,2.5,0,1,0,0,5h7.127a2.5,2.5,0,0,0,0-5Z" transform="translate(-7.815 -139.465)" fill="#e86d1f"/>
      </g>
    </g>
    <g id="Group_26" data-name="Group 26" transform="translate(25.248 4.671)">
      <g id="Group_25" data-name="Group 25">
        <path id="Path_14" data-name="Path 14" d="M85.773,26.1l-3.563-6.17a2.5,2.5,0,1,0-4.33,2.5l3.563,6.17a2.5,2.5,0,0,0,4.33-2.5Z" transform="translate(-77.545 -18.684)" fill="#e86d1f"/>
      </g>
    </g>
    <g id="Group_28" data-name="Group 28" transform="translate(12.485 17.434)">
      <g id="Group_27" data-name="Group 27">
        <path id="Path_15" data-name="Path 15" d="M36.416,73.632l-6.17-3.563a2.5,2.5,0,0,0-2.5,4.33l6.17,3.563a2.5,2.5,0,0,0,2.5-4.33Z" transform="translate(-26.495 -69.735)" fill="#e86d1f"/>
      </g>
    </g>
    <g id="Group_30" data-name="Group 30" transform="translate(66.709 17.434)">
      <g id="Group_29" data-name="Group 29">
        <path id="Path_16" data-name="Path 16" d="M254.218,70.983a2.5,2.5,0,0,0-3.415-.915l-6.17,3.563a2.5,2.5,0,1,0,2.5,4.33L253.3,74.4A2.5,2.5,0,0,0,254.218,70.983Z" transform="translate(-243.382 -69.732)" fill="#e86d1f"/>
      </g>
    </g>
    <g id="Group_32" data-name="Group 32" transform="translate(12.485 48.738)">
      <g id="Group_31" data-name="Group 31">
        <path id="Path_17" data-name="Path 17" d="M37.333,196.2a2.5,2.5,0,0,0-3.415-.916l-6.172,3.563a2.5,2.5,0,1,0,2.5,4.331l6.172-3.563A2.5,2.5,0,0,0,37.333,196.2Z" transform="translate(-26.495 -194.946)" fill="#e86d1f"/>
      </g>
    </g>
    <g id="Group_34" data-name="Group 34" transform="translate(25.248 59.784)">
      <g id="Group_33" data-name="Group 33">
        <path id="Path_18" data-name="Path 18" d="M84.344,239.462a2.5,2.5,0,0,0-3.415.915l-3.049,5.281a2.5,2.5,0,1,0,4.33,2.5l3.049-5.281A2.5,2.5,0,0,0,84.344,239.462Z" transform="translate(-77.545 -239.127)" fill="#e86d1f"/>
      </g>
    </g>
    <g id="Group_36" data-name="Group 36" transform="translate(56.554 4.671)">
      <g id="Group_35" data-name="Group 35">
        <path id="Path_19" data-name="Path 19" d="M210.076,19.019a2.5,2.5,0,0,0-3.415.915L203.1,26.1a2.5,2.5,0,1,0,4.33,2.5l3.563-6.17A2.5,2.5,0,0,0,210.076,19.019Z" transform="translate(-202.763 -18.683)" fill="#e86d1f"/>
      </g>
    </g>
  </g>
</svg>
